<svg height="469.33333pt" viewBox="0 0 469.33333 469.33333" width="469.33333pt" xmlns="http://www.w3.org/2000/svg"><path d="m234.667969 0c-129.386719 0-234.667969 105.28125-234.667969 234.667969s105.28125 234.664062 234.667969 234.664062 234.664062-105.277343 234.664062-234.664062-105.277343-234.667969-234.664062-234.667969zm0 437.332031c-111.746094 0-202.667969-90.921875-202.667969-202.664062 0-111.746094 90.921875-202.667969 202.667969-202.667969 111.742187 0 202.664062 90.921875 202.664062 202.667969 0 111.742187-90.921875 202.664062-202.664062 202.664062zm0 0"/><path d="m214.632812 223.550781c23.320313-3.242187 41.367188-23.316406 41.367188-47.550781 0-26.453125-21.546875-48-48-48h-42.667969c-8.832031 0-16 7.167969-16 16v63.808594.382812 53.140625c0 8.832031 7.167969 16 16 16s16-7.167969 16-16v-22.25l49.367188 35.265625c2.816406 2.027344 6.058593 2.984375 9.28125 2.984375 4.988281 0 9.917969-2.324219 13.03125-6.699219 5.121093-7.1875 3.480469-17.171874-3.730469-22.3125zm-33.300781-31.550781v-32h26.667969c8.8125 0 16 7.1875 16 16s-7.1875 16-16 16zm0 0"/><path d="m314.667969 192h-42.667969c-8.832031 0-16 7.167969-16 16v117.332031c0 8.832031 7.167969 16 16 16s16-7.167969 16-16v-37.332031h26.667969c26.453125 0 48-21.546875 48-48s-21.546875-48-48-48zm0 64h-26.667969v-32h26.667969c8.808593 0 16 7.1875 16 16s-7.191407 16-16 16zm0 0"/></svg>