<svg xmlns="http://www.w3.org/2000/svg" width="1000" height="154" viewBox="0 0 965.79 148.36" shape-rendering="geometricPrecision" image-rendering="optimizeQuality" fill-rule="evenodd"><g fill-rule="nonzero"><path d="M231.7 92.72c0-5.3-1.7-9.82-5.12-13.5-3.42-3.7-7.6-5.52-12.54-5.52-4.9 0-9.08 1.83-12.52 5.52-3.44 3.68-5.15 8.2-5.15 13.5s1.7 9.82 5.15 13.5c3.44 3.68 7.62 5.52 12.52 5.52s9.08-1.84 12.52-5.52c3.44-3.7 5.14-8.2 5.14-13.5zm-49.16-.12c0-4.18.8-8.13 2.4-11.84 1.58-3.73 3.87-7.04 6.83-9.92 2.94-2.87 6.32-5.05 10.15-6.6 3.83-1.53 7.83-2.3 12-2.3 4.3 0 8.36.76 12.17 2.3 3.8 1.54 7.2 3.8 10.24 6.75 3 2.94 5.3 6.26 6.87 9.97 1.57 3.68 2.35 7.57 2.35 11.63 0 4.22-.78 8.2-2.33 11.88-1.54 3.7-3.8 6.98-6.8 9.84-3.13 3-6.6 5.3-10.44 6.84-3.8 1.54-7.84 2.32-12.07 2.32a31.65 31.65 0 0 1-11.94-2.32c-3.83-1.55-7.22-3.8-10.2-6.72-3-2.98-5.3-6.32-6.88-10.02-1.56-3.7-2.34-7.64-2.34-11.82zm89.9-19.52c1.42-3.8 3.27-6.6 5.58-8.4 2.33-1.8 5.2-2.72 8.63-2.72 1.85 0 3.66.23 5.45.66s3.57 1.1 5.3 1.9l-4.7 11.14c-1.13-.8-2.35-1.4-3.64-1.77-1.32-.4-2.78-.57-4.4-.57-4.36 0-7.47 1.73-9.37 5.2-1.9 3.48-2.84 9.32-2.84 17.52v25.08h-13.1V63.8h13.1v9.27zm73.53 19.27c0-5.9-1.38-10.52-4.14-13.8-2.76-3.32-6.6-4.97-11.55-4.97-4.97 0-8.86 1.7-11.68 5.1-2.84 3.4-4.26 8.13-4.26 14.17 0 6.07 1.36 10.76 4.1 14.06 2.74 3.3 6.6 4.96 11.6 4.96 4.73 0 8.58-1.8 11.53-5.35 2.92-3.57 4.4-8.28 4.4-14.17zm-.38-64.73h13.1v93.52h-13.1v-7.4c-2.32 3.28-5.06 5.73-8.17 7.33-3.13 1.6-6.7 2.4-10.73 2.4-8.07 0-14.45-2.76-19.08-8.3-4.66-5.5-6.98-13.1-6.98-22.7 0-9.12 2.37-16.5 7.12-22.1 4.76-5.62 10.95-8.42 18.6-8.42 4.68 0 8.67.97 12 2.93 3.3 1.93 5.74 4.73 7.26 8.37V27.62zm86.23 66.83h-45.7c.33 5.35 1.92 9.53 4.78 12.54 2.84 3 6.65 4.5 11.4 4.5 4.22 0 7.74-.9 10.54-2.66 2.82-1.77 5.27-4.63 7.37-8.58l11 6.15c-3.22 5.77-7.2 10.03-11.95 12.85-4.73 2.82-10.3 4.22-16.7 4.22-9.2 0-16.48-2.8-21.9-8.38-5.42-5.6-8.13-13.05-8.13-22.38 0-8.97 2.8-16.33 8.42-22.1 5.6-5.77 12.8-8.65 21.62-8.65 9.2 0 16.38 2.64 21.53 7.9 5.15 5.25 7.72 12.64 7.72 22.1v2.47zm-13.6-8.77c-.5-4.1-2.08-7.23-4.7-9.37-2.62-2.16-6.2-3.23-10.73-3.23-4.3 0-7.76 1.05-10.37 3.13-2.6 2.1-4.43 5.25-5.48 9.47h31.27zm40.3-12.6c1.42-3.8 3.27-6.6 5.58-8.4 2.32-1.8 5.2-2.72 8.62-2.72 1.86 0 3.67.23 5.46.66s3.56 1.1 5.3 1.9l-4.7 11.14c-1.14-.8-2.35-1.4-3.65-1.77-1.32-.4-2.78-.57-4.38-.57-4.37 0-7.48 1.73-9.37 5.2-1.9 3.48-2.84 9.32-2.84 17.52v25.08h-13.1V63.8h13.1v9.27zm77.35 19.64c0-5.3-1.7-9.82-5.13-13.5-3.4-3.7-7.6-5.52-12.53-5.52-4.9 0-9.08 1.83-12.52 5.52-3.44 3.68-5.15 8.2-5.15 13.5s1.7 9.82 5.15 13.5c3.44 3.68 7.62 5.52 12.52 5.52s9.08-1.84 12.5-5.52c3.44-3.7 5.15-8.2 5.15-13.5zm-49.17-.12c0-4.18.8-8.13 2.4-11.84 1.6-3.73 3.87-7.04 6.84-9.92 2.94-2.87 6.32-5.05 10.15-6.6a32.01 32.01 0 0 1 12-2.29c4.3 0 8.36.76 12.17 2.3 3.8 1.54 7.2 3.8 10.23 6.75 3 2.94 5.3 6.26 6.88 9.97 1.57 3.68 2.35 7.57 2.35 11.63 0 4.22-.78 8.2-2.33 11.88-1.54 3.7-3.8 6.98-6.8 9.84-3.13 3-6.6 5.3-10.44 6.84-3.8 1.54-7.85 2.32-12.07 2.32a31.61 31.61 0 0 1-11.94-2.32c-3.83-1.55-7.23-3.8-10.2-6.72-3-2.98-5.3-6.32-6.88-10.02-1.56-3.7-2.35-7.64-2.35-11.82zm76.82 28.54v-57.2h12.32v9.4c2.6-3.96 5.68-6.84 9.22-8.65s7.84-2.72 12.93-2.72c4.26 0 7.9.68 10.9 2.02 3 1.36 5.33 3.36 7.02 6 1 1.57 1.73 3.4 2.18 5.5.44 2.08.66 5.74.66 10.97v34.68h-13.2V91.77c0-7.5-.9-12.5-2.74-14.98-1.84-2.47-5.1-3.7-9.76-3.7-3.05 0-5.8.56-8.18 1.7-2.38 1.13-4.28 2.72-5.64 4.75-.97 1.38-1.65 3.13-2.02 5.3-.4 2.14-.57 5.55-.57 10.27v26.05h-13.1zm73.24 0V27.62h13.1v93.52h-13.1zm30.66-81.9c0-2.2.82-4.12 2.45-5.74 1.62-1.6 3.56-2.4 5.82-2.4 2.33 0 4.3.78 5.83 2.32 1.54 1.55 2.33 3.5 2.33 5.83 0 2.35-.8 4.3-2.35 5.9-1.6 1.58-3.52 2.4-5.8 2.4-2.26 0-4.2-.83-5.82-2.45-1.63-1.63-2.45-3.56-2.45-5.83zm1.73 81.9v-57.2h13.1v57.2h-13.1zm31.77 0v-57.2h12.3v9.4c2.6-3.96 5.68-6.84 9.22-8.65s7.85-2.72 12.93-2.72c4.26 0 7.9.68 10.9 2.02 3 1.36 5.34 3.36 7.03 6 1 1.57 1.72 3.4 2.18 5.5.43 2.08.66 5.74.66 10.97v34.68h-13.22V91.77c0-7.5-.9-12.5-2.74-14.98s-5.1-3.7-9.76-3.7c-3.05 0-5.8.56-8.17 1.7-2.4 1.13-4.3 2.72-5.65 4.75-.96 1.38-1.64 3.13-2 5.3-.4 2.14-.58 5.55-.58 10.27v26.05h-13.1zm127.7-26.7h-45.7c.33 5.35 1.92 9.53 4.78 12.54 2.84 3 6.65 4.5 11.4 4.5 4.22 0 7.74-.9 10.54-2.66 2.82-1.77 5.27-4.63 7.37-8.58l11 6.15c-3.2 5.77-7.18 10.03-11.94 12.85-4.73 2.82-10.3 4.22-16.7 4.22-9.18 0-16.47-2.8-21.9-8.38-5.42-5.6-8.14-13.05-8.14-22.38 0-8.97 2.8-16.33 8.43-22.1 5.6-5.77 12.8-8.65 21.6-8.65 9.2 0 16.4 2.64 21.54 7.9 5.15 5.25 7.72 12.64 7.72 22.1v2.47zm-13.6-8.77c-.5-4.1-2.08-7.23-4.7-9.37-2.62-2.16-6.2-3.23-10.73-3.23-4.3 0-7.76 1.05-10.38 3.13-2.6 2.1-4.42 5.25-5.47 9.47h31.27z" fill="#96989a"/><path d="M843.98 114.46c0-2.22.76-4.1 2.3-5.68a7.6 7.6 0 0 1 5.62-2.35c2.22 0 4.07.8 5.62 2.35 1.52 1.6 2.28 3.46 2.28 5.68 0 2.17-.76 4.02-2.28 5.52-1.55 1.5-3.4 2.27-5.62 2.27-2.2 0-4.08-.76-5.62-2.27-1.53-1.5-2.3-3.35-2.3-5.52zm34.45-75.23c0-2.2.82-4.12 2.45-5.74 1.62-1.6 3.56-2.4 5.82-2.4 2.33 0 4.3.78 5.83 2.32 1.54 1.55 2.33 3.5 2.33 5.83 0 2.35-.8 4.3-2.35 5.9-1.6 1.58-3.52 2.4-5.8 2.4-2.26 0-4.2-.83-5.82-2.45-1.63-1.63-2.45-3.56-2.45-5.83zm1.73 81.9v-57.2h13.1v57.2h-13.1zm72.9-28.8c0-5.9-1.38-10.52-4.14-13.8-2.75-3.32-6.6-4.97-11.55-4.97-4.96 0-8.85 1.7-11.67 5.1-2.84 3.4-4.26 8.13-4.26 14.17 0 6.07 1.36 10.76 4.1 14.06 2.73 3.3 6.6 4.96 11.6 4.96 4.73 0 8.58-1.8 11.53-5.35 2.92-3.57 4.4-8.28 4.4-14.17zm-.37-64.73h13.1v93.52h-13.1v-7.4c-2.32 3.28-5.06 5.73-8.17 7.33-3.13 1.6-6.7 2.4-10.73 2.4-8.07 0-14.45-2.76-19.08-8.3-4.66-5.5-6.98-13.1-6.98-22.7 0-9.12 2.36-16.5 7.12-22.1 4.76-5.62 10.95-8.42 18.6-8.42 4.68 0 8.67.97 11.98 2.93 3.32 1.93 5.75 4.73 7.27 8.37V27.62z" fill="#5cc6d0"/><path d="M31.67 77.72c0 13.7 5.55 26.1 14.54 35.1a49.47 49.47 0 0 0 35.09 14.53c13.7 0 26.1-5.55 35.1-14.53 8.98-9 14.53-21.4 14.53-35.1h-12.18a37.34 37.34 0 0 1-10.96 26.48c-6.78 6.78-16.15 10.97-26.5 10.97s-19.7-4.2-26.48-10.97-10.97-16.14-10.97-26.48H31.67zm27.7 0c0 6.05 2.45 11.53 6.42 15.5s9.45 6.42 15.5 6.42a21.83 21.83 0 0 0 15.5-6.42c3.97-3.97 6.42-9.45 6.42-15.5H91.04a9.72 9.72 0 1 1-19.48 0H59.38z" fill="#96989a"/></g><circle cx="115.1" cy="138.93" r="9.44" fill="#96989a"/><circle cx="49.33" cy="138.93" r="9.44" fill="#96989a"/><path d="M0 78.36c0-6.05 2.45-11.53 6.42-15.5s9.45-6.42 15.5-6.42c6.06 0 11.54 2.45 15.5 6.42a21.89 21.89 0 0 1 6.42 15.5H31.67c0-2.7-1.1-5.13-2.86-6.9a9.7 9.7 0 0 0-6.89-2.85c-2.7 0-5.12 1.1-6.9 2.85a9.72 9.72 0 0 0-2.85 6.89H0z" fill="#96989a" fill-rule="nonzero"/><path d="M59.38 41.7h12.18v36.14H59.38zm31.64-17.76h12.2v53.9h-12.2zM118.76 0h12.17v77.83h-12.17z" fill="#5cc6d0"/></svg>